<?xml version="1.0" encoding="UTF-8"?>
<svg id="Layer_2" data-name="Layer 2" fill="white" xmlns="http://www.w3.org/2000/svg" viewBox="0 0 42.25 42.25">
  <g id="Layer_1-2" data-name="Layer 1">
    <path d="M21.13,0C9.46,0,0,9.45,0,21.12c0,3.46.85,6.88,2.48,9.93L.17,37.97c-.57,1.7.35,3.54,2.05,4.11.67.22,1.39.22,2.06,0l6.92-2.31c10.3,5.48,23.09,1.57,28.57-8.73,5.48-10.3,1.57-23.09-8.73-28.57C27.99.85,24.59,0,21.13,0ZM21.13,39c-3.14,0-6.23-.83-8.95-2.4-.4-.23-.89-.28-1.33-.14l-7.6,2.53,2.53-7.6c.15-.44.1-.93-.13-1.33C.71,21.53,3.63,10.59,12.18,5.65c8.55-4.94,19.48-2.02,24.42,6.52,4.94,8.55,2.02,19.48-6.52,24.42-2.72,1.57-5.81,2.4-8.95,2.4Z"/>
  </g>
</svg>