<?xml version="1.0" encoding="UTF-8"?>
<svg id="Layer_2" data-name="Layer 2" fill="white" xmlns="http://www.w3.org/2000/svg" viewBox="0 0 40.62 40.62">
  <g id="Layer_1-2" data-name="Layer 1">
    <path d="M38.67,27.31l-9.57-4.29h-.03c-1.01-.44-2.17-.34-3.08.27-.05.03-.1.07-.15.11l-4.94,4.21c-3.13-1.52-6.37-4.73-7.89-7.82l4.22-5.02c.04-.05.08-.1.12-.16.6-.91.7-2.06.27-3.06v-.02L13.31,1.96C12.74.64,11.37-.15,9.94.02,4.24.77-.01,5.63,0,11.37,0,27.5,13.12,40.62,29.25,40.62c5.74.01,10.6-4.24,11.35-9.94.17-1.43-.61-2.8-1.93-3.38Z"/>
  </g>
</svg>