<?xml version="1.0" encoding="UTF-8"?>
<svg id="Layer_2" data-name="Layer 2" fill="white" xmlns="http://www.w3.org/2000/svg" viewBox="0 0 48.75 29.25">
  <g id="Layer_1-2" data-name="Layer 1">
    <path d="M47.89,3.45c-.53-.28-1.17-.25-1.67.08l-7.22,4.81V3.25c0-1.79-1.46-3.25-3.25-3.25H3.25C1.46,0,0,1.46,0,3.25v22.75c0,1.79,1.46,3.25,3.25,3.25h32.5c1.79,0,3.25-1.46,3.25-3.25v-5.08l7.22,4.82c.27.17.58.27.9.26.9,0,1.62-.73,1.62-1.62V4.88c0-.6-.33-1.14-.86-1.42ZM35.75,26H3.25V3.25h32.5v22.75ZM45.5,21.34l-6.5-4.33v-4.76l6.5-4.32v13.42Z"/>
  </g>
</svg>